<svg xmlns="http://www.w3.org/2000/svg" viewBox="0 0 1200 800" role="img" aria-label="XMANX product hero reference">
  <defs>
    <linearGradient id="bg" x1="0" x2="1" y1="0" y2="1">
      <stop offset="0" stop-color="#111827"/>
      <stop offset="0.54" stop-color="#23262f"/>
      <stop offset="1" stop-color="#f97316"/>
    </linearGradient>
    <linearGradient id="shoe" x1="0" x2="1">
      <stop offset="0" stop-color="#f8fafc"/>
      <stop offset="0.55" stop-color="#cbd5e1"/>
      <stop offset="1" stop-color="#111827"/>
    </linearGradient>
  </defs>
  <rect width="1200" height="800" fill="url(#bg)"/>
  <ellipse cx="620" cy="628" rx="380" ry="44" fill="#020617" opacity=".42"/>
  <path d="M266 496c80-74 153-107 246-102 78 4 132 64 218 78 62 10 142-6 210 16 78 26 110 70 86 112H332c-73 0-110-47-66-104Z" fill="url(#shoe)"/>
  <path d="M358 475c84-44 150-62 218-52 62 9 110 58 175 74-111 14-250 14-440-8 12-6 27-11 47-14Z" fill="#fff"/>
  <path d="M695 487c84 11 170 3 239 24 34 10 62 31 78 55H746c-39-16-60-42-51-79Z" fill="#f97316"/>
  <path d="M418 432 552 566M498 420 632 566M578 452 698 566" stroke="#111827" stroke-width="16" stroke-linecap="round"/>
  <rect x="72" y="70" width="190" height="72" rx="18" fill="#08090d"/>
  <text x="167" y="119" text-anchor="middle" font-family="Arial Black, Arial, sans-serif" font-size="32" fill="#fff">XM</text>
  <text x="600" y="705" text-anchor="middle" font-family="Arial Black, Arial, sans-serif" font-size="42" fill="#fff">LAUNCH PRODUCT REFERENCE</text>
</svg>
